# xmcd
#
# Track frame offsets:
#	150
#	698
#	10258
#	18594
#	52731
#	61851
#	81357
#	119361
#	128952
#	141630
#	158700
#	182937
#	194790
#	207701
#	210609
#	226152
#	235176
#	252354
#	263016
#	266397
#	280123
#	289740
#	296784
#	306627
#	316101
#
# Disc length: 4259 seconds
#
# Revision: 3
# Processed by: cddbd v1.5.1PL2 Copyright (c) Steve Scherf et al.
# Submitted via: audiograbber 1.82.01
#
DISCID=7d10a119
DTITLE=Jerry Cotton - 003 - Route 66 - Strasse zur Hölle
DYEAR=2000
DGENRE=Hörspiel
TTITLE0=Kapitel 01
TTITLE1=Kapitel 02
TTITLE2=Kapitel 03
TTITLE3=Kapitel 04
TTITLE4=Kapitel 05
TTITLE5=Kapitel 06
TTITLE6=Kapitel 07
TTITLE7=Kapitel 08
TTITLE8=Kapitel 09
TTITLE9=Kapitel 10
TTITLE10=Kapitel 11
TTITLE11=Kapitel 12
TTITLE12=Kapitel 13
TTITLE13=Kapitel 14
TTITLE14=Kapitel 15
TTITLE15=Kapitel 16
TTITLE16=Kapitel 17
TTITLE17=Kapitel 18
TTITLE18=Kapitel 19
TTITLE19=Kapitel 20
TTITLE20=Kapitel 21
TTITLE21=Kapitel 22
TTITLE22=Kapitel 23
TTITLE23=Kapitel 24
TTITLE24=Kapitel 25
EXTD=
EXTT0=
EXTT1=
EXTT2=
EXTT3=
EXTT4=
EXTT5=
EXTT6=
EXTT7=
EXTT8=
EXTT9=
EXTT10=
EXTT11=
EXTT12=
EXTT13=
EXTT14=
EXTT15=
EXTT16=
EXTT17=
EXTT18=
EXTT19=
EXTT20=
EXTT21=
EXTT22=
EXTT23=
EXTT24=
PLAYORDER=
